<svg xmlns="http://www.w3.org/2000/svg" xmlns:xlink="http://www.w3.org/1999/xlink" width="500" zoomAndPan="magnify" viewBox="0 0 375 374.999991" height="500" preserveAspectRatio="xMidYMid meet" version="1.0"><defs><g/><clipPath id="9ed6de159d"><path d="M 38 48.117188 L 337.5 48.117188 L 337.5 255.117188 L 38 255.117188 Z M 38 48.117188 " clip-rule="nonzero"/></clipPath></defs><g clip-path="url(#9ed6de159d)"><path fill="#e50000" d="M 684.195312 243.453125 C 687.414062 243.453125 690.023438 246.0625 690.023438 249.277344 C 690.023438 252.496094 687.414062 255.105469 684.195312 255.105469 L 85.832031 255.105469 C 80.070312 255.105469 74.832031 252.75 71.042969 248.960938 C 67.25 245.167969 64.894531 239.933594 64.894531 234.167969 L 64.894531 160.558594 L 54.511719 160.558594 C 50.457031 160.558594 47.121094 159.492188 44.515625 157.730469 C 41.628906 155.78125 39.71875 153.023438 38.757812 149.890625 L 38.75 149.894531 C 37.859375 146.984375 37.832031 143.777344 38.632812 140.667969 C 39.582031 136.957031 41.722656 133.339844 44.972656 130.539062 L 134.1875 53.632812 C 138.460938 49.953125 143.996094 48.117188 149.472656 48.117188 C 154.949219 48.117188 160.488281 49.953125 164.753906 53.632812 L 224.710938 105.492188 C 227.136719 107.585938 227.402344 111.257812 225.304688 113.683594 C 223.207031 116.109375 219.535156 116.375 217.109375 114.277344 L 157.15625 62.421875 C 155.101562 60.65625 152.316406 59.769531 149.472656 59.769531 C 146.632812 59.769531 143.839844 60.65625 141.789062 62.421875 L 52.574219 139.328125 C 51.171875 140.535156 50.261719 142.039062 49.878906 143.535156 C 49.605469 144.589844 49.597656 145.613281 49.859375 146.476562 L 49.851562 146.476562 L 49.859375 146.5 C 50.050781 147.121094 50.441406 147.683594 51.023438 148.074219 C 51.785156 148.589844 52.933594 148.902344 54.511719 148.902344 L 70.722656 148.902344 C 73.941406 148.902344 76.550781 151.511719 76.550781 154.730469 L 76.550781 234.167969 C 76.550781 236.714844 77.597656 239.039062 79.28125 240.722656 C 80.964844 242.40625 83.285156 243.453125 85.832031 243.453125 Z M 684.195312 243.453125 " fill-opacity="1" fill-rule="nonzero"/></g><g fill="#f8fafc" fill-opacity="1"><g transform="translate(84.994357, 216.59288)"><g><path d="M 54.703125 -19.046875 C 54.703125 -16.179688 54.332031 -13.566406 53.59375 -11.203125 C 52.863281 -8.847656 51.664062 -6.835938 50 -5.171875 C 48.332031 -3.503906 46.179688 -2.222656 43.546875 -1.328125 C 40.921875 -0.441406 37.707031 0 33.90625 0 L 7.203125 0 L 7.203125 -77.34375 L 33.21875 -77.34375 C 37.007812 -77.34375 40.203125 -76.894531 42.796875 -76 C 45.390625 -75.113281 47.5 -73.835938 49.125 -72.171875 C 50.75 -70.515625 51.910156 -68.503906 52.609375 -66.140625 C 53.304688 -63.773438 53.65625 -61.160156 53.65625 -58.296875 L 53.65625 -55.40625 C 53.65625 -50.757812 52.6875 -47.195312 50.75 -44.71875 C 48.8125 -42.238281 45.945312 -40.648438 42.15625 -39.953125 C 46.570312 -39.179688 49.765625 -37.4375 51.734375 -34.71875 C 53.710938 -32.007812 54.703125 -28.523438 54.703125 -24.265625 Z M 41.578125 -58.421875 C 41.578125 -60.816406 40.992188 -62.847656 39.828125 -64.515625 C 38.671875 -66.179688 36.503906 -67.015625 33.328125 -67.015625 L 19.625 -67.015625 L 19.625 -43.78125 L 31.9375 -43.78125 C 38.363281 -43.78125 41.578125 -47.070312 41.578125 -53.65625 Z M 42.28125 -24.265625 C 42.28125 -30.929688 39.066406 -34.265625 32.640625 -34.265625 L 19.625 -34.265625 L 19.625 -10.34375 L 34.03125 -10.34375 C 37.207031 -10.34375 39.375 -11.15625 40.53125 -12.78125 C 41.695312 -14.40625 42.28125 -16.414062 42.28125 -18.8125 Z M 42.28125 -24.265625 "/></g></g></g><g fill="#f8fafc" fill-opacity="1"><g transform="translate(139.231941, 216.59288)"><g><path d="M 7.203125 0 L 7.203125 -77.34375 L 49.015625 -77.34375 L 49.015625 -66.3125 L 19.515625 -66.3125 L 19.515625 -45.984375 L 40.765625 -45.984375 L 40.765625 -35.53125 L 19.515625 -35.53125 L 19.515625 -11.03125 L 49.015625 -11.03125 L 49.015625 0 Z M 7.203125 0 "/></g></g></g><g fill="#f8fafc" fill-opacity="1"><g transform="translate(186.617169, 216.59288)"><g><path d="M 42.5 0 L 37.515625 -19.96875 L 17.65625 -19.96875 L 12.890625 0 L 0.8125 0 L 21.25 -77.34375 L 34.265625 -77.34375 L 54.9375 0 Z M 27.40625 -60.625 L 20.09375 -30.203125 L 34.953125 -30.203125 Z M 27.40625 -60.625 "/></g></g></g><g fill="#f8fafc" fill-opacity="1"><g transform="translate(236.905933, 216.59288)"><g><path d="M 32.640625 -66.203125 L 32.640625 0 L 20.328125 0 L 20.328125 -66.203125 L 1.515625 -66.203125 L 1.515625 -77.34375 L 51.453125 -77.34375 L 51.453125 -66.203125 Z M 32.640625 -66.203125 "/></g></g></g><g fill="#f8fafc" fill-opacity="1"><g transform="translate(284.407327, 216.59288)"><g><path d="M 53.078125 -21.015625 C 53.078125 -17.765625 52.472656 -14.742188 51.265625 -11.953125 C 50.066406 -9.171875 48.40625 -6.734375 46.28125 -4.640625 C 44.15625 -2.554688 41.582031 -0.9375 38.5625 0.21875 C 35.539062 1.382812 32.171875 1.96875 28.453125 1.96875 C 24.816406 1.96875 21.488281 1.425781 18.46875 0.34375 C 15.445312 -0.738281 12.867188 -2.242188 10.734375 -4.171875 C 8.609375 -6.109375 6.960938 -8.410156 5.796875 -11.078125 C 4.640625 -13.753906 4.0625 -16.644531 4.0625 -19.75 L 4.0625 -23.453125 L 16.265625 -23.453125 L 16.265625 -22.1875 C 16.265625 -13.050781 20.441406 -8.484375 28.796875 -8.484375 C 32.742188 -8.484375 35.707031 -9.523438 37.6875 -11.609375 C 39.664062 -13.703125 40.65625 -16.375 40.65625 -19.625 C 40.65625 -21.25 40.421875 -22.703125 39.953125 -23.984375 C 39.484375 -25.265625 38.707031 -26.484375 37.625 -27.640625 C 36.539062 -28.804688 35.03125 -29.96875 33.09375 -31.125 C 31.164062 -32.289062 28.769531 -33.53125 25.90625 -34.84375 C 23.34375 -36 20.800781 -37.289062 18.28125 -38.71875 C 15.769531 -40.15625 13.546875 -41.785156 11.609375 -43.609375 C 9.671875 -45.429688 8.101562 -47.519531 6.90625 -49.875 C 5.707031 -52.238281 5.109375 -54.96875 5.109375 -58.0625 C 5.109375 -60.9375 5.628906 -63.671875 6.671875 -66.265625 C 7.722656 -68.859375 9.234375 -71.101562 11.203125 -73 C 13.179688 -74.894531 15.601562 -76.398438 18.46875 -77.515625 C 21.332031 -78.640625 24.625 -79.203125 28.34375 -79.203125 C 31.976562 -79.203125 35.285156 -78.660156 38.265625 -77.578125 C 41.242188 -76.492188 43.78125 -74.984375 45.875 -73.046875 C 47.96875 -71.117188 49.570312 -68.816406 50.6875 -66.140625 C 51.8125 -63.472656 52.375 -60.585938 52.375 -57.484375 L 52.375 -54.46875 L 40.53125 -54.46875 L 40.53125 -55.75 C 40.53125 -57.53125 40.296875 -59.210938 39.828125 -60.796875 C 39.367188 -62.390625 38.632812 -63.785156 37.625 -64.984375 C 36.625 -66.179688 35.328125 -67.128906 33.734375 -67.828125 C 32.148438 -68.523438 30.234375 -68.875 27.984375 -68.875 C 24.421875 -68.875 21.769531 -67.941406 20.03125 -66.078125 C 18.289062 -64.222656 17.421875 -61.941406 17.421875 -59.234375 C 17.421875 -57.679688 17.648438 -56.304688 18.109375 -55.109375 C 18.578125 -53.910156 19.429688 -52.75 20.671875 -51.625 C 21.910156 -50.5 23.59375 -49.335938 25.71875 -48.140625 C 27.851562 -46.941406 30.582031 -45.53125 33.90625 -43.90625 C 37.3125 -42.28125 40.210938 -40.671875 42.609375 -39.078125 C 45.015625 -37.492188 46.992188 -35.789062 48.546875 -33.96875 C 50.097656 -32.144531 51.238281 -30.1875 51.96875 -28.09375 C 52.707031 -26.007812 53.078125 -23.648438 53.078125 -21.015625 Z M 53.078125 -21.015625 "/></g></g></g><g fill="#f8fafc" fill-opacity="1"><g transform="translate(95.289515, 313.043106)"><g><path d="M 27.421875 0.453125 C 24.910156 0.453125 23.160156 0.046875 22.171875 -0.765625 C 21.179688 -1.585938 20.6875 -3.082031 20.6875 -5.25 L 20.6875 -11.484375 C 20.6875 -12.972656 20.332031 -14.171875 19.625 -15.078125 C 18.925781 -15.992188 17.753906 -16.453125 16.109375 -16.453125 L 9.59375 -16.453125 L 9.59375 0 L 3.546875 0 L 3.546875 -38.0625 L 16.34375 -38.0625 C 18.207031 -38.0625 19.785156 -37.835938 21.078125 -37.390625 C 22.378906 -36.953125 23.4375 -36.320312 24.25 -35.5 C 25.070312 -34.6875 25.664062 -33.695312 26.03125 -32.53125 C 26.394531 -31.375 26.578125 -30.09375 26.578125 -28.6875 L 26.578125 -26.109375 C 26.578125 -23.972656 26.144531 -22.304688 25.28125 -21.109375 C 24.425781 -19.910156 22.910156 -19.117188 20.734375 -18.734375 C 21.804688 -18.628906 22.710938 -18.347656 23.453125 -17.890625 C 24.203125 -17.429688 24.820312 -16.867188 25.3125 -16.203125 C 25.8125 -15.535156 26.171875 -14.800781 26.390625 -14 C 26.617188 -13.195312 26.734375 -12.378906 26.734375 -11.546875 L 26.734375 -5.71875 C 26.734375 -4.726562 27.363281 -4.234375 28.625 -4.234375 L 28.625 0.453125 Z M 20.453125 -28.734375 C 20.453125 -29.921875 20.15625 -30.921875 19.5625 -31.734375 C 18.976562 -32.554688 17.90625 -32.96875 16.34375 -32.96875 L 9.59375 -32.96875 L 9.59375 -20.859375 L 15.71875 -20.859375 C 18.875 -20.859375 20.453125 -22.492188 20.453125 -25.765625 Z M 20.453125 -28.734375 "/></g></g></g><g fill="#f8fafc" fill-opacity="1"><g transform="translate(136.189134, 313.043106)"><g><path d="M 3.546875 0 L 3.546875 -38.0625 L 24.109375 -38.0625 L 24.109375 -32.625 L 9.59375 -32.625 L 9.59375 -22.625 L 20.0625 -22.625 L 20.0625 -17.484375 L 9.59375 -17.484375 L 9.59375 -5.421875 L 24.109375 -5.421875 L 24.109375 0 Z M 3.546875 0 "/></g></g></g><g fill="#f8fafc" fill-opacity="1"><g transform="translate(173.376437, 313.043106)"><g><path d="M 27.3125 -10.234375 C 27.3125 -8.703125 27.082031 -7.257812 26.625 -5.90625 C 26.164062 -4.5625 25.453125 -3.375 24.484375 -2.34375 C 23.515625 -1.3125 22.265625 -0.503906 20.734375 0.078125 C 19.210938 0.671875 17.382812 0.96875 15.25 0.96875 C 13.125 0.96875 11.285156 0.632812 9.734375 -0.03125 C 8.191406 -0.695312 6.914062 -1.570312 5.90625 -2.65625 C 4.90625 -3.738281 4.164062 -4.992188 3.6875 -6.421875 C 3.207031 -7.859375 2.96875 -9.351562 2.96875 -10.90625 L 2.96875 -27.140625 C 2.96875 -28.660156 3.207031 -30.132812 3.6875 -31.5625 C 4.164062 -33 4.90625 -34.269531 5.90625 -35.375 C 6.914062 -36.476562 8.191406 -37.351562 9.734375 -38 C 11.285156 -38.644531 13.125 -38.96875 15.25 -38.96875 C 17.382812 -38.96875 19.210938 -38.671875 20.734375 -38.078125 C 22.265625 -37.492188 23.515625 -36.695312 24.484375 -35.6875 C 25.453125 -34.675781 26.164062 -33.492188 26.625 -32.140625 C 27.082031 -30.785156 27.3125 -29.347656 27.3125 -27.828125 L 27.3125 -24.734375 L 21.828125 -24.734375 L 21.828125 -27.421875 C 21.828125 -29.367188 21.300781 -30.90625 20.25 -32.03125 C 19.207031 -33.15625 17.597656 -33.71875 15.421875 -33.71875 C 13.253906 -33.71875 11.644531 -33.15625 10.59375 -32.03125 C 9.550781 -30.90625 9.03125 -29.46875 9.03125 -27.71875 L 9.03125 -10.28125 C 9.03125 -8.570312 9.550781 -7.15625 10.59375 -6.03125 C 11.644531 -4.90625 13.253906 -4.34375 15.421875 -4.34375 C 17.597656 -4.34375 19.207031 -4.90625 20.25 -6.03125 C 21.300781 -7.15625 21.828125 -8.6875 21.828125 -10.625 L 21.828125 -13.3125 L 27.3125 -13.3125 Z M 27.3125 -10.234375 "/></g></g></g><g fill="#f8fafc" fill-opacity="1"><g transform="translate(213.876261, 313.043106)"><g><path d="M 27.546875 -11.375 C 27.546875 -9.625 27.304688 -7.992188 26.828125 -6.484375 C 26.347656 -4.984375 25.601562 -3.679688 24.59375 -2.578125 C 23.582031 -1.472656 22.304688 -0.609375 20.765625 0.015625 C 19.222656 0.648438 17.382812 0.96875 15.25 0.96875 C 13.125 0.96875 11.285156 0.648438 9.734375 0.015625 C 8.191406 -0.609375 6.914062 -1.472656 5.90625 -2.578125 C 4.90625 -3.679688 4.164062 -4.984375 3.6875 -6.484375 C 3.207031 -7.992188 2.96875 -9.625 2.96875 -11.375 L 2.96875 -26.6875 C 2.96875 -28.4375 3.207031 -30.050781 3.6875 -31.53125 C 4.164062 -33.019531 4.90625 -34.316406 5.90625 -35.421875 C 6.914062 -36.523438 8.191406 -37.390625 9.734375 -38.015625 C 11.285156 -38.648438 13.125 -38.96875 15.25 -38.96875 C 17.382812 -38.96875 19.222656 -38.648438 20.765625 -38.015625 C 22.304688 -37.390625 23.582031 -36.523438 24.59375 -35.421875 C 25.601562 -34.316406 26.347656 -33.019531 26.828125 -31.53125 C 27.304688 -30.050781 27.546875 -28.4375 27.546875 -26.6875 Z M 21.484375 -27.078125 C 21.484375 -29.023438 20.988281 -30.617188 20 -31.859375 C 19.007812 -33.097656 17.425781 -33.71875 15.25 -33.71875 C 13.125 -33.71875 11.5625 -33.097656 10.5625 -31.859375 C 9.570312 -30.617188 9.078125 -29.023438 9.078125 -27.078125 L 9.078125 -10.96875 C 9.078125 -9.03125 9.570312 -7.441406 10.5625 -6.203125 C 11.5625 -4.960938 13.125 -4.34375 15.25 -4.34375 C 17.425781 -4.34375 19.007812 -4.960938 20 -6.203125 C 20.988281 -7.441406 21.484375 -9.03125 21.484375 -10.96875 Z M 21.484375 -27.078125 "/></g></g></g><g fill="#f8fafc" fill-opacity="1"><g transform="translate(255.575451, 313.043106)"><g><path d="M 27.421875 0.453125 C 24.910156 0.453125 23.160156 0.046875 22.171875 -0.765625 C 21.179688 -1.585938 20.6875 -3.082031 20.6875 -5.25 L 20.6875 -11.484375 C 20.6875 -12.972656 20.332031 -14.171875 19.625 -15.078125 C 18.925781 -15.992188 17.753906 -16.453125 16.109375 -16.453125 L 9.59375 -16.453125 L 9.59375 0 L 3.546875 0 L 3.546875 -38.0625 L 16.34375 -38.0625 C 18.207031 -38.0625 19.785156 -37.835938 21.078125 -37.390625 C 22.378906 -36.953125 23.4375 -36.320312 24.25 -35.5 C 25.070312 -34.6875 25.664062 -33.695312 26.03125 -32.53125 C 26.394531 -31.375 26.578125 -30.09375 26.578125 -28.6875 L 26.578125 -26.109375 C 26.578125 -23.972656 26.144531 -22.304688 25.28125 -21.109375 C 24.425781 -19.910156 22.910156 -19.117188 20.734375 -18.734375 C 21.804688 -18.628906 22.710938 -18.347656 23.453125 -17.890625 C 24.203125 -17.429688 24.820312 -16.867188 25.3125 -16.203125 C 25.8125 -15.535156 26.171875 -14.800781 26.390625 -14 C 26.617188 -13.195312 26.734375 -12.378906 26.734375 -11.546875 L 26.734375 -5.71875 C 26.734375 -4.726562 27.363281 -4.234375 28.625 -4.234375 L 28.625 0.453125 Z M 20.453125 -28.734375 C 20.453125 -29.921875 20.15625 -30.921875 19.5625 -31.734375 C 18.976562 -32.554688 17.90625 -32.96875 16.34375 -32.96875 L 9.59375 -32.96875 L 9.59375 -20.859375 L 15.71875 -20.859375 C 18.875 -20.859375 20.453125 -22.492188 20.453125 -25.765625 Z M 20.453125 -28.734375 "/></g></g></g><g fill="#f8fafc" fill-opacity="1"><g transform="translate(296.475064, 313.043106)"><g><path d="M 27.765625 -11.203125 C 27.765625 -9.640625 27.535156 -8.179688 27.078125 -6.828125 C 26.628906 -5.472656 25.914062 -4.289062 24.9375 -3.28125 C 23.96875 -2.269531 22.738281 -1.46875 21.25 -0.875 C 19.769531 -0.289062 18.019531 0 16 0 L 3.546875 0 L 3.546875 -38.0625 L 16 -38.0625 C 18.019531 -38.0625 19.769531 -37.765625 21.25 -37.171875 C 22.738281 -36.578125 23.96875 -35.773438 24.9375 -34.765625 C 25.914062 -33.753906 26.628906 -32.5625 27.078125 -31.1875 C 27.535156 -29.820312 27.765625 -28.378906 27.765625 -26.859375 Z M 21.71875 -26.234375 C 21.71875 -28.242188 21.21875 -29.8125 20.21875 -30.9375 C 19.226562 -32.0625 17.648438 -32.625 15.484375 -32.625 L 9.59375 -32.625 L 9.59375 -5.421875 L 15.484375 -5.421875 C 17.648438 -5.421875 19.226562 -5.984375 20.21875 -7.109375 C 21.21875 -8.234375 21.71875 -9.785156 21.71875 -11.765625 Z M 21.71875 -26.234375 "/></g></g></g></svg>